PathFileType	4	(X/Y/Z)	C:\Users\WrightLab\Desktop\Jo\P1_boxCal2.trc
DataRate	CameraRate	NumFrames	NumMarkers	Units	OrigDataRate	OrigDataStartFrame	OrigNumFrames
100.00	100.00	       22	19	mm	100.00	722	       825
Frame#	Time	Headset_Front			Headset_Back			Headset_Left			Headset_Right			Left_Shoulder			Right_Shoulder			Sternum			C7			Left Elbow			Right Elbow			Left Wrist			Right Wrist			Left ASIS			Right ASIS			S2			Left Knee			Right Knee			Left Ankle			Right Ankle			
		X1	Y1	Z1	X2	Y2	Z2	X3	Y3	Z3	X4	Y4	Z4	X5	Y5	Z5	X6	Y6	Z6	X7	Y7	Z7	X8	Y8	Z8	X9	Y9	Z9	X10	Y10	Z10	X11	Y11	Z11	X12	Y12	Z12	X13	Y13	Z13	X14	Y14	Z14	X15	Y15	Z15	X16	Y16	Z16	X17	Y17	Z17	X18	Y18	Z18	X19	Y19	Z19	

722	7.210							-179.07245	1496.77710	2442.41943	-228.97415	1571.53247	2290.65112	-73.21972	1306.54199	2399.36133													-517.15082	1058.14539	2223.52051	52.29523	815.45526	2482.04639							-257.14191	941.79987	2538.38184				-424.99301	478.81427	2281.89111	-200.29321	520.34991	2575.48145	-305.55853	183.01773	2112.83276	-223.48567	143.55386	2599.56958	
723	7.220							-180.81639	1498.21777	2450.17188				-74.84027	1307.63586	2406.90479													-517.76276	1060.14563	2228.25464	48.28210	816.65283	2494.36499	-591.90912	831.49860	2304.54980				-258.02045	943.62299	2545.68188				-431.19260	480.72354	2291.98975	-199.51112	520.44458	2581.44287	-309.32346	188.34360	2117.69482	-223.47092	143.58060	2599.60718	
724	7.230							-182.23442	1498.87256	2455.61670	-229.82237	1573.92310	2303.77612	-76.74324	1309.25159	2413.95898													-518.25763	1062.12061	2232.31348	43.55025	817.69397	2504.37036	-593.44220	833.20258	2307.36304				-259.27841	945.77643	2552.00244				-438.13937	482.82932	2300.31934	-199.06581	520.55634	2588.33521	-314.08313	195.34030	2122.15576	-223.69940	143.98235	2599.99170	
725	7.240							-183.70679	1500.12158	2462.38770	-230.11411	1574.88538	2310.29321	-78.48473	1310.98511	2422.17261													-519.05176	1063.93262	2236.56592	39.17272	820.11163	2517.45239	-595.07623	835.00256	2310.57178				-260.52301	947.22620	2559.01074				-443.74768	482.10242	2316.20898	-198.08025	519.85968	2593.19775	-316.46817	199.74409	2130.83862	-223.70758	143.92476	2599.99561	
726	7.250							-184.81929	1500.66272	2467.37817	-230.32043	1574.28699	2313.94458	-80.80589	1312.16492	2429.32031													-520.04718	1065.48083	2240.53442	34.96654	821.63855	2529.74292	-596.48596	836.19696	2313.40234				-261.90018	948.99420	2566.03906				-450.76505	483.36105	2326.95068	-196.98807	517.71960	2596.86816	-319.48911	203.05173	2143.93384	-223.72162	143.79204	2600.02197	
727	7.260							-186.87506	1501.85352	2474.19067				-82.61040	1313.54297	2437.24268													-520.95679	1066.50342	2244.30786	30.63093	822.36359	2540.61182	-597.60938	837.04395	2316.14087				-263.23969	949.74036	2572.43921				-459.75833	486.09811	2334.98145	-195.67390	515.04559	2599.35620	-323.50754	210.61667	2149.14966	-224.52136	141.50092	2597.53125	
728	7.270							-188.94540	1502.99207	2480.46729	-299.40799	69.98775	2559.93433	-84.94462	1314.36694	2444.59131																25.98239	823.87915	2553.28198	-599.34760	837.88812	2319.16260				-264.56534	951.01965	2579.36597				-467.38843	487.81525	2345.68970	-194.93715	513.64496	2601.78784	-327.23520	216.34064	2159.94336	-223.69856	143.77336	2600.11548	
729	7.280							-190.95830	1503.82251	2485.73999				-86.95355	1315.85547	2451.78760	-522.30377	1068.25122	2251.86011													21.15996	824.63458	2564.83447	-600.94678	838.49408	2321.74097				-266.08655	950.95087	2585.29175				-474.71655	490.13446	2356.29175	-193.79631	512.07672	2603.55566	-331.43109	222.83612	2162.98853	-224.38110	141.44661	2597.44263	
730	7.290							-192.45084	1505.27356	2491.94775				-89.08746	1316.13464	2458.93677	-522.91254	1068.53174	2254.77051													16.69174	825.54279	2577.37769	-602.38837	838.98389	2324.40845				-267.53748	951.70074	2591.90625				-481.84567	493.29584	2368.82251	-192.05888	510.39429	2604.32373	-334.74319	226.86160	2180.10840	-224.19952	141.47079	2597.21704	
731	7.300							-194.76834	1506.28101	2497.66846				-91.46127	1317.20764	2466.45264	-523.72260	1068.67212	2258.13794													12.20751	827.31818	2589.73120	-603.41577	839.14606	2326.86523				-269.27414	952.18604	2597.96704				-488.08664	497.83667	2381.39282	-191.40973	509.54999	2605.24292	-337.32245	232.03239	2185.57251	-223.81909	141.73335	2596.39893	
732	7.310													-93.61200	1318.08606	2472.76270	-524.33051	1068.79175	2261.66382													8.60352	829.02478	2604.22119	-604.92078	839.30457	2329.43115				-271.53732	953.02045	2603.78979				-493.89200	502.85675	2393.29834	-190.92850	509.34741	2606.67041	-338.51877	235.12167	2197.26978	-223.95531	141.99083	2596.15405	
733	7.320													-95.67817	1318.69299	2479.77588	-524.62067	1068.90991	2264.93579													3.69539	831.08368	2615.33643	-606.27863	839.75836	2331.56738				-273.17398	953.66248	2609.23999				-499.85175	506.96713	2404.41138	-190.52324	509.12497	2607.41895	-341.25699	237.80159	2208.04053	-223.70097	142.23015	2595.75439	
734	7.330													-98.41947	1319.86572	2485.97876	-524.65717	1069.10132	2267.66455													-3.27998	830.71545	2625.29346	-607.57233	840.19037	2333.85571				-275.05865	954.39026	2614.49048				-505.50287	509.23157	2414.41333	-191.26024	509.90948	2608.59619	-344.95981	240.57524	2217.98706	-223.57402	142.39369	2595.49097	
735	7.340													-100.33097	1320.30164	2492.24951	-524.66040	1069.11121	2270.80835													-8.15172	833.48425	2637.76904							-276.95813	954.34009	2618.94165				-510.42123	510.96616	2423.95679	-191.34793	509.29965	2608.88916	-349.16245	241.27867	2232.54980	-223.57352	142.39717	2595.48438	
736	7.350													-102.37854	1321.58435	2498.16040	-524.52167	1069.06213	2273.38086													-13.72826	835.60272	2649.82471							-278.87186	954.12640	2623.12500				-514.70477	513.50787	2433.53247	-191.40494	509.38107	2609.55835	-353.57263	240.94948	2243.69336	-223.15147	142.58408	2595.00610	
737	7.360													-104.68510	1322.54663	2503.14160	-524.39172	1069.44604	2275.74341													-18.38687	837.96472	2660.67139							-280.82449	953.95496	2626.53735				-518.64197	516.19104	2442.74829	-191.43117	509.60538	2611.20825	-358.42581	239.28722	2257.23828	-222.86679	142.73503	2594.68530	
738	7.370	-610.01746	841.97211	2341.00098										-107.03611	1323.78015	2509.27930	-524.15851	1070.05994	2278.91528													-23.94343	840.70007	2672.13696							-282.42789	954.39874	2629.58545				-522.11346	518.97583	2452.15454	-190.76422	508.89368	2612.12109	-363.30814	236.96858	2272.63159	-222.77690	142.85332	2594.56372	
739	7.380	-610.47162	842.70477	2342.57935										-108.77118	1324.79016	2514.43652	-524.11804	1070.57654	2281.53369													-29.04635	842.93347	2683.03467							-284.02228	954.22369	2632.46558				-524.28021	521.77991	2460.36377	-190.53561	509.08435	2613.10791	-368.06720	232.34242	2287.41626	-222.55649	143.00154	2594.26147	
740	7.390	-610.68646	843.14899	2343.71021										-110.98011	1326.07080	2518.90479	-524.26691	1071.48120	2283.97217													-34.62313	846.17761	2693.86572							-286.10291	955.11365	2635.68140				-525.40460	524.53180	2468.45630	-190.28381	509.59344	2614.55469	-374.68689	229.26465	2299.08691	-222.24542	143.29581	2593.64990	
741	7.400	-610.67706	843.64063	2345.21582	-213.21364	696.23260	2102.95776							-113.27763	1327.18762	2523.89111	-524.43854	1071.85486	2286.38013													-40.26176	849.33124	2704.03271							-287.69113	955.74634	2638.59473				-526.96252	526.73724	2475.94922	-190.05983	509.89600	2616.02075	-378.91794	222.98557	2315.92505	-221.93253	143.47343	2593.20215	
742	7.410	-610.74829	843.98383	2346.74146	-217.21793	698.74316	2112.53564							-115.44769	1328.77356	2529.12500	-524.80969	1072.55115	2289.21875													-45.18114	852.38599	2713.65601							-289.00180	956.78241	2641.33423				-528.11621	528.64838	2483.09985	-189.66466	509.43912	2616.59985	-384.45181	216.95888	2331.92212	-221.80167	143.59888	2592.93848	
743	7.420	-610.81769	844.35333	2348.23120	-220.74139	700.84076	2120.70898							-117.62771	1329.60730	2534.19727	-525.41785	1073.23389	2291.87109													-50.65534	855.06445	2723.11523							-289.84958	957.26801	2643.35913				-528.45001	530.57233	2489.63306	-189.64389	509.37408	2617.00830	-390.12238	210.36783	2348.17090	-221.15300	144.92496	2593.18091	
